<?xml version="1.0" encoding="utf-8"?>
<!-- Generator: Adobe Illustrator 19.2.0, SVG Export Plug-In . SVG Version: 6.00 Build 0)  -->
<svg version="1.1" id="Layer_1" xmlns="http://www.w3.org/2000/svg" xmlns:xlink="http://www.w3.org/1999/xlink" x="0px" y="0px"
	 viewBox="0 0 300 300" style="enable-background:new 0 0 300 300;" xml:space="preserve">
<style type="text/css">
	.st0{fill:#6633CC;}
	.st1{fill:#FFFFFF;}
</style>
<g id="Hexagon">
	<ellipse class="st0" cx="75.6" cy="74.9" rx="73.6" ry="74.6"/>
</g>
<g>
	<path class="st1" d="M25,77.8c0,4.5,0.4,8.6,1.3,12.3c0.8,3.7,2,6.9,3.5,9.6c1.5,2.7,3.4,5.1,5.7,7.1c2.3,2.1,4.8,3.7,7.5,5
		c2.7,1.3,5.8,2.4,9.3,3.2c3.5,0.8,7,1.4,10.7,1.7c3.6,0.3,7.6,0.5,11.9,0.5c4.4,0,8.4-0.2,12-0.5c3.6-0.3,7.2-0.9,10.7-1.7
		c3.5-0.8,6.6-1.9,9.3-3.2c2.7-1.3,5.3-3,7.6-5c2.3-2.1,4.3-4.4,5.8-7.1c1.5-2.7,2.7-5.9,3.6-9.6c0.8-3.7,1.3-7.8,1.3-12.3
		c0-8.1-2.7-15.1-8.1-21c0.3-0.8,0.6-1.7,0.8-2.7c0.2-1,0.5-2.4,0.7-4.3c0.2-1.8,0.1-4-0.2-6.4c-0.4-2.4-1.1-4.9-2.1-7.4l-0.7-0.1
		c-0.5-0.1-1.4-0.1-2.6,0.1c-1.2,0.1-2.6,0.4-4.2,0.9c-1.6,0.4-3.6,1.3-6.1,2.5c-2.5,1.3-5.1,2.8-7.9,4.7c-4.8-1.3-11.3-2-19.6-2
		c-8.3,0-14.8,0.7-19.6,2c-2.8-1.9-5.4-3.5-8-4.7c-2.5-1.3-4.5-2.1-6-2.5c-1.5-0.4-2.9-0.7-4.2-0.9c-1.3-0.1-2.1-0.2-2.5-0.1
		c-0.3,0-0.6,0.1-0.8,0.2c-1,2.5-1.7,5-2.1,7.4c-0.4,2.4-0.5,4.5-0.2,6.4c0.2,1.8,0.4,3.3,0.7,4.3c0.2,1,0.5,1.9,0.8,2.7
		C27.7,62.7,25,69.7,25,77.8z M37.3,90.1c0-4.7,2.1-9,6.4-12.9c1.3-1.2,2.8-2.1,4.5-2.7c1.7-0.6,3.6-0.9,5.8-1
		c2.1-0.1,4.2-0.1,6.1,0c2,0.1,4.4,0.3,7.2,0.5c2.9,0.2,5.4,0.3,7.4,0.3c2.1,0,4.6-0.1,7.4-0.3c2.9-0.2,5.3-0.4,7.2-0.5
		c2-0.1,4-0.1,6.1,0c2.1,0.1,4.1,0.4,5.8,1c1.7,0.6,3.2,1.5,4.5,2.7c4.3,3.9,6.4,8.2,6.4,12.9c0,2.8-0.4,5.3-1.1,7.5
		c-0.7,2.2-1.6,4-2.7,5.5c-1.1,1.5-2.6,2.7-4.6,3.7c-1.9,1-3.8,1.8-5.7,2.4c-1.8,0.6-4.2,1-7.1,1.3c-2.9,0.3-5.5,0.5-7.7,0.6
		c-2.3,0.1-5.2,0.1-8.6,0.1c-3.5,0-6.4,0-8.6-0.1c-2.3-0.1-4.8-0.3-7.7-0.6s-5.3-0.7-7.1-1.3c-1.8-0.6-3.7-1.3-5.7-2.4
		c-1.9-1-3.5-2.3-4.6-3.7c-1.1-1.5-2-3.3-2.7-5.5C37.6,95.3,37.3,92.9,37.3,90.1z M87.6,89.1c0,5.2,2.8,9.4,6.3,9.4s6.3-4.2,6.3-9.4
		c0-5.2-2.8-9.4-6.3-9.4S87.6,83.9,87.6,89.1z M50,89.1c0,5.2,2.8,9.4,6.3,9.4s6.3-4.2,6.3-9.4c0-5.2-2.8-9.4-6.3-9.4
		S50,83.9,50,89.1z"/>
</g>
<ellipse class="st1" cx="74.8" cy="75.9" rx="58.9" ry="59.7"/>
<path id="XMLID_1_" class="st0" d="M114.4,109.9c0,3.2-2.6,5.7-5.9,5.7H40.7c-3.2,0-5.9-2.6-5.9-5.7V41.3c0-3.2,2.6-5.7,5.9-5.7
	h67.8c3.2,0,5.9,2.6,5.9,5.7C114.4,41.3,114.4,109.9,114.4,109.9z"/>
<path class="st1" d="M89.2,65.6c-6.4,0-9.2,3.5-10.8,6v-5.1h-12c0.2,3.4,0,36.2,0,36.2h12V82.4c0-1.1,0.1-2.2,0.4-2.9
	c0.9-2.2,2.8-4.4,6.2-4.4c4.3,0,6.1,3.3,6.1,8.2v19.3h12h0V81.8C103,70.7,97.1,65.6,89.2,65.6z M78.4,71.6L78.4,71.6
	c-0.1,0,0-0.1,0-0.1V71.6z"/>
<rect x="47.7" y="66.4" class="st1" width="12" height="36.2"/>
<path class="st1" d="M53.8,49c-4.1,0-6.8,2.7-6.8,6.2c0,3.5,2.6,6.2,6.6,6.2h0.1c4.2,0,6.8-2.8,6.8-6.2C60.4,51.7,57.9,49,53.8,49z"
	/>
<ellipse class="st0" cx="224.5" cy="75.5" rx="73.5" ry="74.5"/>
<g id="H_3_">
	<g>
		<path class="st1" d="M239.3,81.8v30.7h-5.2c-1,0-1.9,0.8-1.9,1.9c0,0.7,0.4,1.3,0.9,1.6l11.6,11.2c0.3,0.5,1,0.8,1.7,0.8
			c0.6,0,1.2-0.3,1.5-0.8l12.4-11.2c0.6-0.3,0.9-0.9,0.9-1.6c0-1-0.8-1.9-1.9-1.9h-5.2l0-74.1c0-1-0.8-1.9-1.9-1.9h-11
			c-1,0-1.9,0.8-1.9,1.9V67h-30.1V37.3h5.2c1,0,1.9-0.8,1.9-1.9c0-0.7-0.4-1.3-0.9-1.6l-11.6-11.2c-0.3-0.5-1-0.8-1.7-0.8
			c-0.6,0-1.2,0.3-1.5,0.8l-12.4,11.2c-0.6,0.3-0.9,0.9-0.9,1.6c0,1,0.8,1.9,1.9,1.9h5.2l0.1,74.1c0,1,0.8,1.9,1.9,1.9h11
			c1,0,1.9-0.8,1.9-1.9V81.8H239.3z"/>
	</g>
</g>
<ellipse class="st1" cx="224.5" cy="75.8" rx="59.1" ry="59.9"/>
<g id="H_2_">
	<g>
		<path class="st0" d="M239.6,82.1v30.7h-5.2c-1,0-1.9,0.8-1.9,1.9c0,0.7,0.4,1.3,0.9,1.6l11.6,11.2c0.3,0.5,1,0.8,1.7,0.8
			c0.6,0,1.2-0.3,1.5-0.8l12.4-11.2c0.6-0.3,0.9-0.9,0.9-1.6c0-1-0.8-1.9-1.9-1.9h-5.2l0-74.1c0-1-0.8-1.9-1.9-1.9h-11
			c-1,0-1.9,0.8-1.9,1.9v28.6h-30.1V37.6h5.2c1,0,1.9-0.8,1.9-1.9c0-0.7-0.4-1.3-0.9-1.6L204,22.9c-0.3-0.5-1-0.8-1.7-0.8
			c-0.6,0-1.2,0.3-1.5,0.8l-12.4,11.2c-0.6,0.3-0.9,0.9-0.9,1.6c0,1,0.8,1.9,1.9,1.9h5.2l0.1,74.1c0,1,0.8,1.9,1.9,1.9h11
			c1,0,1.9-0.8,1.9-1.9V82.1H239.6z"/>
	</g>
</g>
<g id="Hexagon_1_">
	<ellipse class="st0" cx="75" cy="225" rx="74" ry="75"/>
</g>
<g>
	<path class="st1" d="M25.8,226.8c0,4.5,0.4,8.6,1.3,12.2s2,6.8,3.5,9.5c1.5,2.7,3.4,5.1,5.7,7.1c2.3,2,4.8,3.7,7.5,5
		s5.8,2.4,9.2,3.2s7,1.4,10.6,1.7c3.6,0.3,7.5,0.5,11.8,0.5c4.3,0,8.3-0.2,11.9-0.5c3.6-0.3,7.1-0.9,10.6-1.7
		c3.5-0.8,6.6-1.9,9.3-3.2c2.7-1.3,5.2-3,7.5-5c2.3-2,4.2-4.4,5.7-7.1c1.5-2.7,2.7-5.9,3.5-9.5c0.8-3.7,1.3-7.7,1.3-12.2
		c0-8-2.7-15-8.1-20.8c0.3-0.8,0.5-1.7,0.8-2.6c0.2-1,0.5-2.4,0.7-4.2c0.2-1.8,0.1-3.9-0.2-6.4c-0.4-2.4-1.1-4.8-2.1-7.3l-0.7-0.1
		c-0.5-0.1-1.4-0.1-2.6,0.1c-1.2,0.1-2.6,0.4-4.1,0.9s-3.6,1.3-6.1,2.5c-2.5,1.2-5.1,2.8-7.9,4.7c-4.7-1.3-11.2-2-19.5-2
		c-8.2,0-14.7,0.7-19.4,2c-2.8-1.9-5.4-3.5-7.9-4.7c-2.5-1.2-4.5-2.1-6-2.5c-1.5-0.4-2.9-0.7-4.2-0.9c-1.3-0.1-2.1-0.2-2.4-0.1
		c-0.3,0.1-0.6,0.1-0.8,0.2c-1,2.5-1.7,4.9-2.1,7.3c-0.4,2.4-0.5,4.5-0.2,6.4c0.2,1.8,0.4,3.2,0.7,4.2c0.2,1,0.5,1.9,0.8,2.6
		C28.5,211.8,25.8,218.8,25.8,226.8z M38,239c0-4.7,2.1-8.9,6.4-12.8c1.3-1.2,2.7-2,4.4-2.6s3.6-0.9,5.7-1c2.1-0.1,4.1-0.1,6.1,0.1
		c2,0.1,4.3,0.3,7.2,0.5c2.8,0.2,5.3,0.3,7.4,0.3s4.5-0.1,7.4-0.3c2.8-0.2,5.2-0.3,7.2-0.5c2-0.1,4-0.1,6.1-0.1s4,0.4,5.7,1
		c1.7,0.6,3.2,1.5,4.4,2.6c4.3,3.8,6.4,8.1,6.4,12.8c0,2.8-0.3,5.3-1,7.4c-0.7,2.2-1.6,4-2.7,5.4c-1.1,1.5-2.6,2.7-4.5,3.7
		c-1.9,1-3.8,1.8-5.6,2.4c-1.8,0.5-4.2,1-7,1.3c-2.9,0.3-5.4,0.5-7.7,0.5c-2.2,0.1-5.1,0.1-8.6,0.1c-3.5,0-6.3,0-8.6-0.1
		c-2.2-0.1-4.8-0.3-7.7-0.5c-2.9-0.3-5.2-0.7-7-1.3c-1.8-0.5-3.7-1.3-5.6-2.4c-1.9-1-3.4-2.3-4.5-3.7c-1.1-1.5-2-3.2-2.7-5.4
		C38.4,244.2,38,241.8,38,239z M87.9,238c0,5.1,2.8,9.3,6.2,9.3s6.2-4.2,6.2-9.3c0-5.1-2.8-9.3-6.2-9.3S87.9,232.9,87.9,238z
		 M50.6,238c0,5.1,2.8,9.3,6.2,9.3s6.2-4.2,6.2-9.3c0-5.1-2.8-9.3-6.2-9.3S50.6,232.9,50.6,238z"/>
</g>
<ellipse class="st1" cx="75.3" cy="225" rx="58.5" ry="59.3"/>
<g>
	<path class="st0" d="M25.8,225.9c0,4.5,0.4,8.6,1.3,12.2s2,6.8,3.5,9.5c1.5,2.7,3.4,5.1,5.7,7.1c2.3,2,4.8,3.7,7.5,5
		c2.7,1.3,5.8,2.4,9.2,3.2s7,1.4,10.6,1.7c3.6,0.3,7.5,0.5,11.8,0.5c4.3,0,8.3-0.2,11.9-0.5c3.6-0.3,7.1-0.9,10.6-1.7
		c3.5-0.8,6.6-1.9,9.3-3.2c2.7-1.3,5.2-3,7.5-5c2.3-2,4.2-4.4,5.7-7.1c1.5-2.7,2.7-5.9,3.5-9.5c0.8-3.7,1.3-7.7,1.3-12.2
		c0-8-2.7-15-8.1-20.8c0.3-0.8,0.5-1.7,0.8-2.6c0.2-1,0.5-2.4,0.7-4.2c0.2-1.8,0.1-3.9-0.2-6.4c-0.4-2.4-1.1-4.8-2.1-7.3l-0.7-0.1
		c-0.5-0.1-1.4-0.1-2.6,0.1c-1.2,0.1-2.6,0.4-4.1,0.9s-3.6,1.3-6.1,2.5c-2.5,1.2-5.1,2.8-7.9,4.7c-4.7-1.3-11.2-2-19.5-2
		c-8.2,0-14.7,0.7-19.4,2c-2.8-1.9-5.4-3.5-7.9-4.7c-2.5-1.2-4.5-2.1-6-2.5c-1.5-0.4-2.9-0.7-4.2-0.9s-2.1-0.2-2.4-0.1
		c-0.3,0.1-0.6,0.1-0.8,0.2c-1,2.5-1.7,4.9-2.1,7.3c-0.4,2.4-0.5,4.5-0.2,6.4c0.2,1.8,0.4,3.2,0.7,4.2c0.2,1,0.5,1.9,0.8,2.6
		C28.5,210.9,25.8,217.9,25.8,225.9z M38,238.1c0-4.7,2.1-8.9,6.4-12.8c1.3-1.2,2.7-2,4.4-2.6s3.6-0.9,5.7-1
		c2.1-0.1,4.1-0.1,6.1,0.1c2,0.1,4.3,0.3,7.2,0.5c2.8,0.2,5.3,0.3,7.4,0.3s4.5-0.1,7.4-0.3c2.8-0.2,5.2-0.3,7.2-0.5
		c2-0.1,4-0.1,6.1-0.1s4,0.4,5.7,1c1.7,0.6,3.2,1.5,4.4,2.6c4.3,3.8,6.4,8.1,6.4,12.8c0,2.8-0.3,5.3-1,7.4c-0.7,2.2-1.6,4-2.7,5.4
		c-1.1,1.5-2.6,2.7-4.5,3.7c-1.9,1-3.8,1.8-5.6,2.4c-1.8,0.5-4.2,1-7,1.3c-2.9,0.3-5.4,0.5-7.7,0.5c-2.2,0.1-5.1,0.1-8.6,0.1
		c-3.5,0-6.3,0-8.6-0.1c-2.2-0.1-4.8-0.3-7.7-0.5c-2.9-0.3-5.2-0.7-7-1.3c-1.8-0.5-3.7-1.3-5.6-2.4c-1.9-1-3.4-2.3-4.5-3.7
		c-1.1-1.5-2-3.2-2.7-5.4C38.4,243.4,38,240.9,38,238.1z M87.9,237.1c0,5.1,2.8,9.3,6.2,9.3s6.2-4.2,6.2-9.3c0-5.1-2.8-9.3-6.2-9.3
		S87.9,232,87.9,237.1z M50.6,237.1c0,5.1,2.8,9.3,6.2,9.3s6.2-4.2,6.2-9.3c0-5.1-2.8-9.3-6.2-9.3S50.6,232,50.6,237.1z"/>
</g>
</svg>
